<mxfile host="app.diagrams.net" modified="2023-06-24T07:26:12.713Z" agent="Mozilla/5.0 (Windows NT 10.0; Win64; x64) AppleWebKit/537.36 (KHTML, like Gecko) Chrome/114.0.0.0 Safari/537.36" etag="1oZANstdMw0jti9l--jQ" version="21.5.0" type="github">
  <diagram id="prtHgNgQTEPvFCAcTncT" name="Page-1">
    <mxGraphModel dx="1185" dy="642" grid="1" gridSize="10" guides="1" tooltips="1" connect="1" arrows="1" fold="1" page="1" pageScale="1" pageWidth="827" pageHeight="1169" math="0" shadow="0">
      <root>
        <mxCell id="0" />
        <mxCell id="1" parent="0" />
        <mxCell id="dNxyNK7c78bLwvsdeMH5-11" value="误差来源" style="swimlane;html=1;startSize=20;horizontal=1;containerType=tree;glass=0;" parent="1" vertex="1">
          <mxGeometry x="34" y="50" width="2436" height="470" as="geometry" />
        </mxCell>
        <mxCell id="ux9FGk7YxiCrDKr7o1Dm-8" value="标定平台误差来源" style="rounded=1;whiteSpace=wrap;html=1;" vertex="1" parent="dNxyNK7c78bLwvsdeMH5-11">
          <mxGeometry x="606" y="50" width="120" height="60" as="geometry" />
        </mxCell>
        <mxCell id="ux9FGk7YxiCrDKr7o1Dm-9" value="&lt;span style=&quot;color: rgb(0, 0, 0); font-family: Helvetica; font-size: 12px; font-style: normal; font-variant-ligatures: normal; font-variant-caps: normal; font-weight: 400; letter-spacing: normal; orphans: 2; text-align: center; text-indent: 0px; text-transform: none; widows: 2; word-spacing: 0px; -webkit-text-stroke-width: 0px; background-color: rgb(251, 251, 251); text-decoration-thickness: initial; text-decoration-style: initial; text-decoration-color: initial; float: none; display: inline !important;&quot;&gt;静态误差&lt;/span&gt;" style="rounded=1;whiteSpace=wrap;html=1;" vertex="1" parent="dNxyNK7c78bLwvsdeMH5-11">
          <mxGeometry x="226" y="160" width="120" height="60" as="geometry" />
        </mxCell>
        <mxCell id="ux9FGk7YxiCrDKr7o1Dm-10" value="动态误差" style="rounded=1;whiteSpace=wrap;html=1;" vertex="1" parent="dNxyNK7c78bLwvsdeMH5-11">
          <mxGeometry x="1246" y="160" width="120" height="60" as="geometry" />
        </mxCell>
        <mxCell id="ux9FGk7YxiCrDKr7o1Dm-11" value="热误差" style="rounded=1;whiteSpace=wrap;html=1;" vertex="1" parent="dNxyNK7c78bLwvsdeMH5-11">
          <mxGeometry x="1836" y="160" width="120" height="60" as="geometry" />
        </mxCell>
        <mxCell id="ux9FGk7YxiCrDKr7o1Dm-12" value="其他误差" style="rounded=1;whiteSpace=wrap;html=1;" vertex="1" parent="dNxyNK7c78bLwvsdeMH5-11">
          <mxGeometry x="2256" y="160" width="120" height="60" as="geometry" />
        </mxCell>
        <mxCell id="ux9FGk7YxiCrDKr7o1Dm-13" value="通信时延误差" style="shape=cube;whiteSpace=wrap;html=1;boundedLbl=1;backgroundOutline=1;darkOpacity=0.05;darkOpacity2=0.1;" vertex="1" parent="dNxyNK7c78bLwvsdeMH5-11">
          <mxGeometry x="36" y="320" width="120" height="80" as="geometry" />
        </mxCell>
        <mxCell id="ux9FGk7YxiCrDKr7o1Dm-14" value="机械加工精度" style="shape=cube;whiteSpace=wrap;html=1;boundedLbl=1;backgroundOutline=1;darkOpacity=0.05;darkOpacity2=0.1;" vertex="1" parent="dNxyNK7c78bLwvsdeMH5-11">
          <mxGeometry x="196" y="320" width="120" height="80" as="geometry" />
        </mxCell>
        <mxCell id="ux9FGk7YxiCrDKr7o1Dm-15" value="外界环境" style="shape=cube;whiteSpace=wrap;html=1;boundedLbl=1;backgroundOutline=1;darkOpacity=0.05;darkOpacity2=0.1;" vertex="1" parent="dNxyNK7c78bLwvsdeMH5-11">
          <mxGeometry x="1736" y="320" width="120" height="80" as="geometry" />
        </mxCell>
        <mxCell id="ux9FGk7YxiCrDKr7o1Dm-16" value="设备易发热件" style="shape=cube;whiteSpace=wrap;html=1;boundedLbl=1;backgroundOutline=1;darkOpacity=0.05;darkOpacity2=0.1;" vertex="1" parent="dNxyNK7c78bLwvsdeMH5-11">
          <mxGeometry x="1916" y="320" width="120" height="80" as="geometry" />
        </mxCell>
        <mxCell id="ux9FGk7YxiCrDKr7o1Dm-18" value="传动间隙误差" style="shape=cube;whiteSpace=wrap;html=1;boundedLbl=1;backgroundOutline=1;darkOpacity=0.05;darkOpacity2=0.1;" vertex="1" parent="dNxyNK7c78bLwvsdeMH5-11">
          <mxGeometry x="356" y="320" width="120" height="80" as="geometry" />
        </mxCell>
        <mxCell id="ux9FGk7YxiCrDKr7o1Dm-19" value="几何误差" style="shape=cube;whiteSpace=wrap;html=1;boundedLbl=1;backgroundOutline=1;darkOpacity=0.05;darkOpacity2=0.1;" vertex="1" parent="dNxyNK7c78bLwvsdeMH5-11">
          <mxGeometry x="506" y="320" width="120" height="80" as="geometry" />
        </mxCell>
        <mxCell id="ux9FGk7YxiCrDKr7o1Dm-21" value="外界干扰" style="shape=cube;whiteSpace=wrap;html=1;boundedLbl=1;backgroundOutline=1;darkOpacity=0.05;darkOpacity2=0.1;" vertex="1" parent="dNxyNK7c78bLwvsdeMH5-11">
          <mxGeometry x="2146" y="320" width="120" height="80" as="geometry" />
        </mxCell>
        <mxCell id="ux9FGk7YxiCrDKr7o1Dm-35" value="随机误差" style="shape=cube;whiteSpace=wrap;html=1;boundedLbl=1;backgroundOutline=1;darkOpacity=0.05;darkOpacity2=0.1;" vertex="1" parent="dNxyNK7c78bLwvsdeMH5-11">
          <mxGeometry x="2296" y="320" width="120" height="80" as="geometry" />
        </mxCell>
        <mxCell id="ux9FGk7YxiCrDKr7o1Dm-37" value="质量误差" style="shape=cube;whiteSpace=wrap;html=1;boundedLbl=1;backgroundOutline=1;darkOpacity=0.05;darkOpacity2=0.1;" vertex="1" parent="dNxyNK7c78bLwvsdeMH5-11">
          <mxGeometry x="656" y="320" width="120" height="80" as="geometry" />
        </mxCell>
        <mxCell id="ux9FGk7YxiCrDKr7o1Dm-38" value="振动误差" style="shape=cube;whiteSpace=wrap;html=1;boundedLbl=1;backgroundOutline=1;darkOpacity=0.05;darkOpacity2=0.1;" vertex="1" parent="dNxyNK7c78bLwvsdeMH5-11">
          <mxGeometry x="986" y="320" width="120" height="80" as="geometry" />
        </mxCell>
        <mxCell id="ux9FGk7YxiCrDKr7o1Dm-39" value="弹性变形误差" style="shape=cube;whiteSpace=wrap;html=1;boundedLbl=1;backgroundOutline=1;darkOpacity=0.05;darkOpacity2=0.1;" vertex="1" parent="dNxyNK7c78bLwvsdeMH5-11">
          <mxGeometry x="1158" y="320" width="120" height="80" as="geometry" />
        </mxCell>
        <mxCell id="ux9FGk7YxiCrDKr7o1Dm-40" value="伺服驱动误差" style="shape=cube;whiteSpace=wrap;html=1;boundedLbl=1;backgroundOutline=1;darkOpacity=0.05;darkOpacity2=0.1;" vertex="1" parent="dNxyNK7c78bLwvsdeMH5-11">
          <mxGeometry x="1326" y="320" width="120" height="80" as="geometry" />
        </mxCell>
        <mxCell id="ux9FGk7YxiCrDKr7o1Dm-1" value="&lt;h1&gt;误差来源-实际上是重复定位误差补偿&lt;/h1&gt;&lt;div&gt;1、静态误差&lt;/div&gt;&lt;div&gt;2、动态误差&lt;/div&gt;&lt;div&gt;3、热误差&lt;/div&gt;&lt;div&gt;4、其他误差&lt;/div&gt;" style="text;html=1;strokeColor=none;fillColor=none;spacing=5;spacingTop=-20;whiteSpace=wrap;overflow=hidden;rounded=0;" vertex="1" parent="1">
          <mxGeometry x="560" y="600" width="270" height="230" as="geometry" />
        </mxCell>
        <mxCell id="ux9FGk7YxiCrDKr7o1Dm-17" value="&lt;h1&gt;热误差&lt;/h1&gt;&lt;div&gt;热误差的影响因素有外因和内因&lt;/div&gt;&lt;div&gt;&lt;br&gt;&lt;/div&gt;&lt;div&gt;外界环境温度（数值）&lt;/div&gt;&lt;div&gt;&lt;br&gt;&lt;/div&gt;&lt;div&gt;运动轴的转速、加速度、材料及属性&lt;/div&gt;&lt;div&gt;&lt;br&gt;&lt;/div&gt;" style="text;html=1;strokeColor=none;fillColor=none;spacing=5;spacingTop=-20;whiteSpace=wrap;overflow=hidden;rounded=0;" vertex="1" parent="1">
          <mxGeometry x="920" y="760" width="190" height="150" as="geometry" />
        </mxCell>
        <mxCell id="ux9FGk7YxiCrDKr7o1Dm-20" value="&lt;h1&gt;静态误差&lt;/h1&gt;&lt;div&gt;几何误差：由机台结构、零部件制造安装引起的&lt;/div&gt;" style="text;html=1;strokeColor=none;fillColor=none;spacing=5;spacingTop=-20;whiteSpace=wrap;overflow=hidden;rounded=0;" vertex="1" parent="1">
          <mxGeometry x="90" y="760" width="190" height="150" as="geometry" />
        </mxCell>
        <mxCell id="ux9FGk7YxiCrDKr7o1Dm-36" value="&lt;h1&gt;其他误差&lt;/h1&gt;&lt;div&gt;外界干扰&lt;/div&gt;&lt;div&gt;随机误差：预紧力、装配精度、&lt;/div&gt;零件磨损&lt;span style=&quot;background-color: initial;&quot;&gt;（对重复定位精度影响大）&lt;/span&gt;" style="text;html=1;strokeColor=none;fillColor=none;spacing=5;spacingTop=-20;whiteSpace=wrap;overflow=hidden;rounded=0;" vertex="1" parent="1">
          <mxGeometry x="1320" y="760" width="190" height="150" as="geometry" />
        </mxCell>
        <mxCell id="ux9FGk7YxiCrDKr7o1Dm-42" value="&lt;h1&gt;动态误差&lt;/h1&gt;&lt;div&gt;弹性变形误差：变形误差是运动平台在负载下，由于外力或过大的惯性&lt;span style=&quot;font-family: 宋体; font-size: 10.45pt; background-color: initial;&quot;&gt;力是产生的变形&lt;/span&gt;&lt;/div&gt;&lt;div&gt;&lt;span style=&quot;font-family: 宋体; font-size: 10.45pt; background-color: initial;&quot;&gt;振动误差：&lt;/span&gt;振动误差由运动平台的频率决定，&lt;span style=&quot;font-family: 宋体; font-size: 10.45pt; background-color: initial;&quot;&gt;需要建立动态刚度模型并补偿到控制器中&lt;/span&gt;&lt;/div&gt;&lt;div&gt;&lt;div&gt;伺服驱动误差：指伺服驱动器驱动能力不足导致电机失步引起的位移误差&lt;/div&gt;&lt;/div&gt;" style="text;html=1;strokeColor=none;fillColor=none;spacing=5;spacingTop=-20;whiteSpace=wrap;overflow=hidden;rounded=0;" vertex="1" parent="1">
          <mxGeometry x="470" y="760" width="290" height="190" as="geometry" />
        </mxCell>
      </root>
    </mxGraphModel>
  </diagram>
</mxfile>
